/* XPM */
static char *a6195a0ce3ae4c23f358d995467dbe58lKbdABe9trxLaLFc[] = {
/* columns rows colors chars-per-pixel */
"32 32 181 2 ",
"   c None",
".  c black",
"X  c #010101",
"o  c #020202",
"O  c gray1",
"+  c #040404",
"@  c gray2",
"#  c #060606",
"$  c #070707",
"%  c gray3",
"&  c #090909",
"*  c gray4",
"=  c #0B0B0B",
"-  c #0C0C0C",
";  c gray5",
":  c #0E0E0E",
">  c gray6",
",  c #101010",
"<  c #111111",
"1  c gray7",
"2  c #131313",
"3  c gray8",
"4  c #161616",
"5  c gray9",
"6  c #181818",
"7  c #191919",
"8  c gray10",
"9  c #1B1B1B",
"0  c gray11",
"q  c #1D1D1D",
"w  c gray12",
"e  c #202020",
"r  c gray13",
"t  c #222222",
"y  c #232323",
"u  c gray14",
"i  c #252525",
"p  c gray15",
"a  c #272727",
"s  c #282828",
"d  c gray16",
"f  c #2A2A2A",
"g  c #2C2C2C",
"h  c gray18",
"j  c #2F2F2F",
"k  c gray19",
"l  c #313131",
"z  c #323232",
"x  c gray20",
"c  c #343434",
"v  c #373737",
"b  c gray22",
"n  c gray23",
"m  c #3C3C3C",
"M  c gray24",
"N  c #3F3F3F",
"B  c gray25",
"V  c #414141",
"C  c gray26",
"Z  c #434343",
"A  c #444444",
"S  c #464646",
"D  c gray28",
"F  c #484848",
"G  c #494949",
"H  c gray29",
"J  c #4B4B4B",
"K  c #4C4C4C",
"L  c gray30",
"P  c #4E4E4E",
"I  c gray31",
"U  c #505050",
"Y  c #515151",
"T  c gray32",
"R  c #535353",
"E  c gray33",
"W  c #555555",
"Q  c #565656",
"!  c gray34",
"~  c gray35",
"^  c #5B5B5B",
"/  c gray36",
"(  c gray37",
")  c #5F5F5F",
"_  c #606060",
"`  c gray38",
"'  c #626262",
"]  c #646464",
"[  c #656565",
"{  c gray40",
"}  c #676767",
"|  c #686868",
" . c DimGray",
".. c #6A6A6A",
"X. c gray42",
"o. c #6C6C6C",
"O. c #6D6D6D",
"+. c gray43",
"@. c #6F6F6F",
"#. c gray44",
"$. c #717171",
"%. c gray45",
"&. c gray46",
"*. c #777777",
"=. c gray47",
"-. c #797979",
";. c gray48",
":. c #7C7C7C",
">. c #808080",
",. c gray51",
"<. c gray52",
"1. c #868686",
"2. c gray53",
"3. c #898989",
"4. c #8B8B8B",
"5. c #909090",
"6. c #929292",
"7. c #939393",
"8. c gray58",
"9. c #979797",
"0. c gray60",
"q. c #9B9B9B",
"w. c #9D9D9D",
"e. c gray62",
"r. c #A0A0A0",
"t. c #A2A2A2",
"y. c gray64",
"u. c gray65",
"i. c gray67",
"p. c gray69",
"a. c #B6B6B6",
"s. c gray72",
"d. c gray75",
"f. c #C0C0C0",
"g. c gray76",
"h. c #C3C3C3",
"j. c gray77",
"k. c #C5C5C5",
"l. c #C6C6C6",
"z. c #C8C8C8",
"x. c gray79",
"c. c #CACACA",
"v. c #CDCDCD",
"b. c #CECECE",
"n. c gray81",
"m. c LightGray",
"M. c gray84",
"N. c #D7D7D7",
"B. c #D8D8D8",
"V. c gray85",
"C. c #DADADA",
"Z. c gainsboro",
"A. c #DDDDDD",
"S. c gray87",
"D. c #DFDFDF",
"F. c gray88",
"G. c gray89",
"H. c #E4E4E4",
"J. c gray90",
"K. c #E6E6E6",
"L. c #E7E7E7",
"P. c gray91",
"I. c #E9E9E9",
"U. c #EAEAEA",
"Y. c gray92",
"T. c #EEEEEE",
"R. c gray94",
"E. c #F1F1F1",
"W. c gray95",
"Q. c #F3F3F3",
"!. c #F4F4F4",
"~. c gray96",
"^. c #F6F6F6",
"/. c gray97",
"(. c #F8F8F8",
"). c #F9F9F9",
"_. c gray98",
"`. c gray99",
"'. c #FDFDFD",
"]. c #FEFEFE",
"[. c white",
/* pixels */
"                            7 e e 7                             ",
"                    w B _ ....} ......_ J e                     ",
"                w ~ +.L s , # o o # , u J ..( u                 ",
"              S #.B = o o o o o o o o o o # n +.L               ",
"          > ( ( > o o o o o # z u o o o o o o = E } 7           ",
"        > } L o o o o o o g 6.U.S.&.7 o o o o o o B +.3         ",
"        ( J o o o o o o , l.[.[.[.[.9.o o o o o o o B ..        ",
"      S ( o o o o 3 } u o +.V.[._.l.J o B E = o o o o U E       ",
"    w #., o o > ~ x.[.w.u o e :.+., o N f._.p.B o o o # +.s     ",
"    ~ B o # J a._.T.V.[.F.:.w o o g 9.E._.M._.E.w.z o o g }     ",
"  w +.= o ( /./.i.n 7 =.S.[.m.+.<.K.[.x.~ 3 E l.[.F.v o # ..s   ",
"  B U o o #.d.L # = 7 o e 4.U.[.[.M.#., o w o , ..x.B o o S U   ",
"  _ s o o 7 > o S a.V.=.7 o J E.m.u o g 9.S.q.g o 7 , o o 7 }   ",
"  .., o o o v t././.U.[.f.3 e U.f.= , w./.E.[.K.<.e o o o # ..7 ",
"7 ..# o o E U.[.d.L z M.U.u u U.f.= o , N 6.[.E./.6.= o o o } u ",
"e ..o o o &.[.6.= o S F.K.e u T.f.= o o o =.[.4.B , o o o o _ g ",
"w } o o o &.[...g t.E.[.K.e u U.f.= o o o =.[...o o o o o o ( g ",
"7 ..# o o &.[.v.U.[.f.K.K.u u U.l.= o o o =.[...o o o o o o } s ",
"  ..> o o #.[.[.v._ 7 f.U.e u T.f.= o o o =.[...o o o o o # ..7 ",
"  _ u o o &.[.w.7 o > f.U.u u U.f.= o o o =.[...o o o o o 3 ..  ",
"  J L o o &.[.} o o = f.K.e u U.f.> o o o =.[.<.S , o o o n E   ",
"  e +.# o U U...o o > f.U.u u T.f.= o o o =.[./._.6.= o o } g   ",
"    ( v o o n g o o = f.U.e u U.f.= o o J M.[.K.<.u o o u ..    ",
"    u +.= o o o o o = l.U.u u U.f.> o w M.T.9.g o o o # ..v     ",
"      U E o o o o o # t.K.e u T.f.= o >.i.n o o o o o S ~       ",
"        } B o o o o o , ~ 3 u U.l.= , n = o o o o o z #.3       ",
"        7 #.N o o o o o o o 7 v.u.# o o o o o o o z #.e         ",
"          3 ..L # o o o o o o e 3 o o o o o o o S +.e           ",
"              U +.z # o o o o o o o o o o o u ..~ 3             ",
"                s } ..N 7 # o o o o # 3 n } ..z                 ",
"                    g U } ..} _ ( } ....E z                     ",
"                          3 s g g s 7                           "
};
