/* XPM */
static char *_506d82226e2400fb8dd7d3745a13a92W4heccxSo5anMIMS[] = {
/* columns rows colors chars-per-pixel */
"16 16 93 2 ",
"   c None",
".  c black",
"X  c #010101",
"o  c #020202",
"O  c gray1",
"+  c #040404",
"@  c gray2",
"#  c #070707",
"$  c #090909",
"%  c gray4",
"&  c #0B0B0B",
"*  c #0C0C0C",
"=  c gray5",
"-  c #0E0E0E",
";  c #101010",
":  c #111111",
">  c gray7",
",  c #131313",
"<  c gray8",
"1  c #151515",
"2  c #161616",
"3  c #1D1D1D",
"4  c #222222",
"5  c gray15",
"6  c #272727",
"7  c gray16",
"8  c gray17",
"9  c #2C2C2C",
"0  c gray18",
"q  c gray20",
"w  c #343434",
"e  c #353535",
"r  c #373737",
"t  c gray22",
"y  c #393939",
"u  c #3A3A3A",
"i  c gray23",
"p  c gray26",
"a  c #434343",
"s  c #444444",
"d  c gray27",
"f  c #464646",
"g  c gray28",
"h  c #484848",
"j  c #494949",
"k  c #4B4B4B",
"l  c gray30",
"z  c #505050",
"x  c #515151",
"c  c #565656",
"v  c #5B5B5B",
"b  c gray37",
"n  c #646464",
"m  c #686868",
"M  c DimGray",
"N  c #6A6A6A",
"B  c #6C6C6C",
"V  c #6D6D6D",
"C  c gray43",
"Z  c #6F6F6F",
"A  c gray48",
"S  c #7B7B7B",
"D  c gray50",
"F  c #818181",
"G  c gray51",
"H  c #838383",
"J  c #848484",
"K  c gray53",
"L  c #8E8E8E",
"P  c gray59",
"I  c #979797",
"U  c #989898",
"Y  c #9D9D9D",
"T  c #A0A0A0",
"R  c gray63",
"E  c #A2A2A2",
"W  c gray64",
"Q  c #A4A4A4",
"!  c #A5A5A5",
"~  c gray65",
"^  c #AFAFAF",
"/  c #B1B1B1",
"(  c gray71",
")  c #B6B6B6",
"_  c gray76",
"`  c gray77",
"'  c #C6C6C6",
"]  c gray78",
"[  c #D8D8D8",
"{  c gray85",
"}  c #DADADA",
"|  c gray86",
" . c #E7E7E7",
/* pixels */
"            s s s s             ",
"        s 0 2 = = 2 0 s         ",
"    p u = X 2 C n = X $ u p     ",
"    u X ; 5 l  .| u 8 $ X r     ",
"  s 2 l / _ C s s S ' ! p = p   ",
"  8 q R v s I ( ) L s b R 4 5 p ",
"s 2 = x R / s U F r ( R j $ ; s ",
"s = u ' b ! J J C @ m | m @ = s ",
"s $ s ' Y | F J C X j ! X X $ s ",
"s 2 s | v S F J C X j ! @ X ; s ",
"  8 u I X C J J C X l | m @ 8 p ",
"  s ; 3 X C J J C = R ! u $ p   ",
"    r X X r x J C 8 s @ X r     ",
"    p r $ X X p r X X $ q s     ",
"        s 8 2 $ @ ; 5 p         ",
"          p s s s s p           "
};
