/* XPM */
static char *_13815415a4146b08e9f34d54043b4f0vkMxpFzUyEfpX2jN[] = {
/* columns rows colors chars-per-pixel */
"64 64 242 2 ",
"   c None",
".  c black",
"X  c #010101",
"o  c #020202",
"O  c gray1",
"+  c #040404",
"@  c gray2",
"#  c #060606",
"$  c #070707",
"%  c gray3",
"&  c #090909",
"*  c gray4",
"=  c #0B0B0B",
"-  c #0C0C0C",
";  c gray5",
":  c #0E0E0E",
">  c gray6",
",  c #101010",
"<  c #111111",
"1  c gray7",
"2  c #131313",
"3  c gray8",
"4  c #151515",
"5  c #161616",
"6  c gray9",
"7  c #181818",
"8  c #191919",
"9  c gray10",
"0  c #1B1B1B",
"q  c gray11",
"w  c #1D1D1D",
"e  c #1E1E1E",
"r  c gray12",
"t  c #202020",
"y  c gray13",
"u  c #222222",
"i  c #232323",
"p  c gray14",
"a  c #252525",
"s  c gray15",
"d  c #272727",
"f  c #282828",
"g  c gray16",
"h  c #2A2A2A",
"j  c gray17",
"k  c #2C2C2C",
"l  c #2D2D2D",
"z  c gray18",
"x  c #2F2F2F",
"c  c gray19",
"v  c #313131",
"b  c #323232",
"n  c gray20",
"m  c #343434",
"M  c #353535",
"N  c gray21",
"B  c #373737",
"V  c gray22",
"C  c #393939",
"Z  c #3A3A3A",
"A  c gray23",
"S  c #3C3C3C",
"D  c gray24",
"F  c #3E3E3E",
"G  c #3F3F3F",
"H  c #414141",
"J  c gray26",
"K  c #434343",
"L  c #444444",
"P  c gray27",
"I  c #464646",
"U  c gray28",
"Y  c #484848",
"T  c #494949",
"R  c gray29",
"E  c #4C4C4C",
"W  c gray30",
"Q  c #4E4E4E",
"!  c gray31",
"~  c #505050",
"^  c #515151",
"/  c gray32",
"(  c #535353",
")  c gray33",
"_  c #555555",
"`  c #565656",
"'  c gray34",
"]  c #585858",
"[  c gray35",
"{  c #5A5A5A",
"}  c #5B5B5B",
"|  c gray36",
" . c #5D5D5D",
".. c gray37",
"X. c #5F5F5F",
"o. c #606060",
"O. c gray38",
"+. c #626262",
"@. c gray39",
"#. c #646464",
"$. c #656565",
"%. c #676767",
"&. c #686868",
"*. c #6A6A6A",
"=. c #6C6C6C",
"-. c #6D6D6D",
";. c gray43",
":. c #6F6F6F",
">. c gray44",
",. c #717171",
"<. c #727272",
"1. c gray45",
"2. c #747474",
"3. c gray46",
"4. c #767676",
"5. c gray47",
"6. c gray48",
"7. c #7B7B7B",
"8. c #7C7C7C",
"9. c gray49",
"0. c #7E7E7E",
"q. c gray50",
"w. c #808080",
"e. c #818181",
"r. c gray51",
"t. c #838383",
"y. c #848484",
"u. c gray52",
"i. c #868686",
"p. c gray53",
"a. c #888888",
"s. c #898989",
"d. c gray54",
"f. c #8B8B8B",
"g. c gray55",
"h. c #8E8E8E",
"j. c gray56",
"k. c #909090",
"l. c gray57",
"z. c #929292",
"x. c #939393",
"c. c gray58",
"v. c #959595",
"b. c gray59",
"n. c #979797",
"m. c gray60",
"M. c #9A9A9A",
"N. c #9B9B9B",
"B. c gray61",
"V. c #9D9D9D",
"C. c gray62",
"Z. c #9F9F9F",
"A. c #A0A0A0",
"S. c gray63",
"D. c #A2A2A2",
"F. c gray64",
"G. c #A4A4A4",
"H. c #A5A5A5",
"J. c gray65",
"K. c #A7A7A7",
"L. c gray66",
"P. c #A9A9A9",
"I. c #AAAAAA",
"U. c gray67",
"Y. c #ACACAC",
"T. c gray68",
"R. c #AEAEAE",
"E. c #AFAFAF",
"W. c gray69",
"Q. c #B1B1B1",
"!. c #B2B2B2",
"~. c gray70",
"^. c #B4B4B4",
"/. c gray71",
"(. c #B6B6B6",
"). c #B7B7B7",
"_. c gray72",
"`. c #B9B9B9",
"'. c gray73",
"]. c #BBBBBB",
"[. c #BCBCBC",
"{. c gray74",
"}. c gray",
"|. c gray75",
" X c #C0C0C0",
".X c #C1C1C1",
"XX c gray76",
"oX c #C3C3C3",
"OX c gray77",
"+X c #C5C5C5",
"@X c #C6C6C6",
"#X c gray78",
"$X c #C8C8C8",
"%X c gray79",
"&X c #CACACA",
"*X c #CBCBCB",
"=X c #CDCDCD",
"-X c gray81",
";X c #D0D0D0",
":X c gray82",
">X c #D2D2D2",
",X c LightGray",
"<X c gray83",
"1X c #D5D5D5",
"2X c #D7D7D7",
"3X c #D8D8D8",
"4X c gray85",
"5X c #DADADA",
"6X c gray86",
"7X c gainsboro",
"8X c #DDDDDD",
"9X c gray87",
"0X c #DFDFDF",
"qX c gray88",
"wX c #E1E1E1",
"eX c #E2E2E2",
"rX c gray89",
"tX c #E4E4E4",
"yX c gray90",
"uX c #E6E6E6",
"iX c #E7E7E7",
"pX c #E9E9E9",
"aX c gray92",
"sX c #ECECEC",
"dX c gray93",
"fX c #EEEEEE",
"gX c #EFEFEF",
"hX c gray94",
"jX c #F1F1F1",
"kX c gray95",
"lX c #F3F3F3",
"zX c #F4F4F4",
"xX c gray96",
"cX c #F6F6F6",
"vX c gray97",
"bX c #F8F8F8",
"nX c gray98",
"mX c #FBFBFB",
"MX c gray99",
"NX c #FDFDFD",
"BX c #FEFEFE",
"VX c white",
/* pixels */
"                                                                                                                                ",
"                                                  . . . . . # # # # . . . . .                                                   ",
"                                            . . * g E -.s.C.I.W.Y.Y.S.h.3.^ c 2 . .                                             ",
"                                      . . - K e.W.|.W.v.6.*.) E E ) O.3.h.I.|.`.l.^ 8 . .                                       ",
"                                  . . e -.`.|.s.E e * . . . . . . . . . . # 3 S 6.W.XXy.c . .                                   ",
"                                . e 9.@XG.E 2 . . . . . . . . . . . . . . . . . . - S l.@Xm.c . .                               ",
"                            . * O.XXS.V # . . . . . . . . . . . . . . . . . . . . . . . g y.&X9.8 .                             ",
"                          . g G.`.E # . . . . . . . . . . . . . . . . . . . . . . . . . . . c S.`.I . .                         ",
"                      . . ^ @Xy.3 . . . . . . . . . . . . . . . . . . . . . . . . . . . . . . * O.@X3.* .                       ",
"                    . # -.@X) . . . . . . . . . . . . . . . g e.{ * . . . . . . . . . . . . . . . M `.l.3 .                     ",
"                  . # e.XXV . . . . . . . . . . . . . . e 6.4XVXvXW.I # . . . . . . . . . . . . . . e G.I.3 .                   ",
"                . # e.|.k . . . . . . . . . . . . . 2 *.-XVXVXnXVXVXgXC.M . . . . . . . . . . . . . . 2 S.I.3 .                 ",
"                . -.XXk . . . . . . . . . . . . . - G.VXVXnXVXVXVXVXVXVXtXR . . . . . . . . . . . . . . 2 G.m.* .               ",
"              . ^ @XV . . . . . . . . . . . . . . 3 >XVXVXVXVXVXVXVXVXVXVX*.. . . . . . . . . . . . . . . 8 (.9..               ",
"            . g @X^ . . . . . . . . . . . M g . . * s.gXVXVXVXVXVXnXVXVX&XV . . * I 3 . . . . . . . . . . . k @X) .             ",
"            - G.y.. . . . . . . . . . g l.tX{ . . . # S I.kXVXVXVXVX<X3.8 . . . - XX@X) * . . . . . . . . . . ^ XXi .           ",
"          . O.`.3 . . . . . . . . e 6.4XVXVXl.3 . . . . * E `.nXtXy.a . . . . . K 7XVXvXW.I # . . . . . . . . . v.l..           ",
"        . e XXE . . . . . . . 2 *.-XVXVXVXVXnX&XO.- . . . . 2 ^ M . . . . . k v.aXVXVXVXVXkXS.M . . . . . . . . i @XI .         ",
"        . 9.C.# . . . . . - ) XXnXVXVXVXVXVXVXVXnX(.E * . . . . . . . . a e.rXVXVXVXVXVXVXVXVXtXh.g . . . . . . . <.I.*         ",
"      . e XXS . . . . # I W.vXVXVXVXVX7XY.tXVXVXVXVXkXG.S # . . . . 3 <.<XVXVXVXVXnXXX`.vXVXVXVXVX7X9.e . . . . . 3 |.I .       ",
"      . -.G.# . . . * l.kXVXVXVXVXgXv.k # M C.gXVXVXVXVXaXv.k . - | &XVXVXVXVXVX-X*.2 - | &XVXVXVXVXVX-XK . . . . . 3.S.#       ",
"      - `.^ . . . . 3 <XVXVXVXkXG.V # . . . # I W.vXVXVXVXVXrXh.(.nXVXVXVXVX4X6.8 . . . . 3 -.<XVXVXVXVX<.. . . . . a XXk .     ",
"    . S |.3 . . . . 3 >XVXvX`.E * . . . . . . . * ) |.nXVXVXVXVXVXVXVXVXaXs.a . . . . . . . . i e.rXVXVX<.. . . . . . C.<..     ",
"    . e.s.. . . . . 3 -X&X| - . . . . 3 V - . . . . 2 %.-XVXVXVXVXVXgXC.M . . . . . g k . . . . . k v.aX<.. . . . . . ) Y.*     ",
"    - (.R . . . . . - ^ 8 . . . . * ^ |.gXW.I # . . . . e y.nXVXVX-XI # . . . . e 6.7XrXy.a . . . . . K V . . . . . . e XXg .   ",
"  . g |.e . . . . . . . . . . # S Y.kXVXVXVXkXC.M . . . . k gXVXVXm.. . . . 3 *.-XVXVXVXVX<X<.3 . . . . . . . . . . . # G.) .   ",
"  . R W.* . . . . . . . . . c v.aXVXVXVXVXVXVXVXaXy.2 . . c aXVXVXm.. . . g |.VXVXVXVXVXVXVXVX@X| 2 . . . . . . . . . . y.e..   ",
"  . -.v.. . . . . . . . a y.rXVXVXVXVXkX>XvXVXVXVXgXk . . c aXVXVXm.. . . 2 | @XVXVXtXvXVXVXVXVXnX(.E * . . . . . . . . O.C.#   ",
"  . s.6.. . . . . . # *.4XVXVXVXVXnX|.^ 8 | 4XVXVXtXk . . c aXVXVXm.# . . . . 3 <.s.I 4XVXVXVXVXVXVXvXC.8 . . . . . . . R W.*   ",
"  . C.%.. . . . . . 3 >XVXVXVXVX&X%.2 . . . C.VXVXaXk . . c aXVXVXm.. . . . . . . . 8 <XVXVXkXgXVXnX@X{ - . . . . . . . M `.3   ",
"  # G.) . . . . . . 3 >XVXVXaX6.8 . . . . * I.VXVXaXg . . c gXVXVXm.. . . . . . . . 8 4XVXVX@XE C.-.3 . . . . . . . . . g XX8 . ",
"  # W.^ . . . . . . 3 <XVXVXXX* . . . . V G.kXVXVXaXk . . M aXVXVXm.. . . . . . . . 8 <XVXVX|.* . . . . . . . . . . . . i XXe . ",
"  # W.E . . . . . . 2 >XVXVX|.* . . g l.aXVXVXVXVXaXk . . c aXVXVXm.# . . . . . . . 8 <XVXVX|.* . . . . . . . . . . . . i XXi . ",
"  # Y.^ . . . . . . 3 >XVXVX|.* e e.7XVXVXVXVXVXVXaXk . . c aXVXVXm.. . . . . . . . 8 4XVXVXXX- . . . . . . . . . . . . a |.e . ",
"  . S.O.. . . . . . 3 >XVXVX&X3.>XVXVXVXVXvXkXVXVXaXc . . c aXVXVXm.. . . . . . . . 8 4XVXVXXX* . . . . . . . . . . . . c `.3   ",
"  . l.3.. . . . . . 2 >XVXVXnXnXVXVXVXVX@X{ G.VXVXaXk . . c aXVXVXm.. . . . . . . . 8 4XVXVX|.* . . . . . . . . . . . . I (.-   ",
"  . 3.l.. . . . . . 3 >XVXVXVXVXVXVX4X<.8 . C.VXVXaXk . . c gXVXVXm.. . . . . . . . 8 4XVXVXXX- . . . . . . . . . . . . { G.#   ",
"  . ^ I.# . . . . . 3 >XVXVXVXVXtXh.a . . . C.VXVXtXk . . c aXVXVXC.. . . . . . . . 8 4XVXVX|.* . . . . . . . . . . . . 6.s..   ",
"  . c |.3 . . . . . 3 >XVXVXvXS.M . . . . . C.VXVXaXk . . c aXVXVXm.. . . . . . . . 8 <XVXVX|.* . . . . . . . . . . . . S.O..   ",
"    2 `.S . . . . . 3 >XVXVXXX2 . . . . . . C.VXVXaXk . . c aXVXVXm.. . . . . . . . 8 4XVXVXXX* . . . . . . . . . . . 3 |.c .   ",
"    . l.6.. . . . . 3 >XVXVX|.* . . . . . . S.VXVXaXk . . c aXVXVXm.. . . . . . . . 8 4XVXVXXX# . . . . . . . . . . . I `.2     ",
"    . ^ (.* . . . . 3 >XVXVXXX* . . . . . . C.VXVXtXk . . c aXVXVXm.. . . . . . . . 8 <XVXVX@X^ G.<.8 . . . . . . . . s.e..     ",
"      3 XXS . . . . 3 >XVXVXXX* . . . . . . C.VXVXaXk . . c gXVXVXm.. . . . . . . . 8 4XVXVXkXgXVXVX&X| - . . . . . 8 XXS .     ",
"      . y.l.. . . . # %.<XVXXX* . . . . . . C.VXVXgXk . . c aXVXVXm.# . . . . . . . 8 4XVXVXVXVXVXVXvXC.8 . . . . . | W.*       ",
"      . k @Xg . . . . . i y.S.- . . . . . . C.VXVXtXk . . c aXVXVXm.# . . . . . . e e.kXVXVXVXVXvX(.R * . . . . . - (.| .       ",
"        # v.y.. . . . . . . 8 . . . . . . . C.VXVXaXk . . c aXVXVXm.. . . . . . i @XVXVXVXVXVX@X{ - . . . . . . . ^ |.3 .       ",
"        . c @Xc . . . . . . . . . . . . . . C.VXVXaXk . . c aXVXVXm.. . . . . # l.VXVXVXVX>X-.3 . . . . . . . . 2 (.| .         ",
"          . e.G.* . . . . . . . . . . . . . C.VXVXaXc . . c aXVXVXm.. . . . . I gXVXVX7X9.i . . . . . . . . . . 3.Y.-           ",
"          . 8 `.%.. . . . . . . . . . . . . C.VXVXaXk . . c gXVXVXC.. . . . 2 |.VXaXl.k . . . . . . . . . . . V &XV .           ",
"            . I &Xc . . . . . . . . . . . . ) <XVXaXk . . c aXVXVXm.. . . . <.kXG.V # . . . . . . . . . . . 3 W.<..             ",
"              . 3.(.e . . . . . . . . . . . . i e.&Xk . . c aXVXVXm.# . . a l.E # . . . . . . . . . . . . * v.S.- .             ",
"              . * l.G.3 . . . . . . . . . . . . . i 2 . . c aXVXVXm.. . . 3 2 . . . . . . . . . . . . . # 9.`.e .               ",
"                . 3 I.S.2 . . . . . . . . . . . . . . . . c gXVXVXC.. . . . . . . . . . . . . . . . . # 3.XXk .                 ",
"                  . 3 I.G.8 . . . . . . . . . . . . . . . 8 Y.vXrX| . . . . . . . . . . . . . . . . * 9.@Xc .                   ",
"                    . 3 m.(.k . . . . . . . . . . . . . . . 2 E c . . . . . . . . . . . . . . . . 3 v.(.k .                     ",
"                      . * 9.@X) # . . . . . . . . . . . . . . . . . . . . . . . . . . . . . . . M (.S.e .                       ",
"                        . . ^ XXl.i . . . . . . . . . . . . . . . . . . . . . . . . . . . . 2 3.@X<.- .                         ",
"                            . i l.@X-.8 . . . . . . . . . . . . . . . . . . . . . . . . * ) `.I.V . .                           ",
"                              . . I I.|.3.a . . . . . . . . . . . . . . . . . . . . 8 O.W.|.| - .                               ",
"                                  . * R S.XXm.^ e # . . . . . . . . . . . . # 3 I y.|.W.O.3 .                                   ",
"                                      . # k 3.W.XXI.e.O.I M g i i a c K { 9.C.|.(.y.S - . .                                     ",
"                                          . . * g ) e.S.(.`.|.XXXX|.|.(.G.s.O.c 2 . .                                           ",
"                                                . . . . * 2 8 e e e 3 - # . . .                                                 ",
"                                                            . . . .                                                             "
};
